<svg xmlns="http://www.w3.org/2000/svg" viewBox="0 0 943 323" class="Logo_main_2QxW2"><g fill="none"><g fill="#fff"><path d="M496.641 135.919h78.904l4.213-14.083h-78.883zM519.498 48.701l-15.821 53.775h85.878l15.852-53.775h-15.995l-11.598 39.437H557.84l16.354-55.555h-14.973l-16.374 55.555h-19.974l11.618-39.437zM523.647 32.657l-18.9.174c-15.811 18.951-32.543 34.364-54.47 51.709l-7.988 24.259c26.478-20.393 60.29-50.39 81.358-76.142zM576.915 174.647s-17.274 12.027-28.524 18.47l11.086-36.961s-65.751-.43-66.917 0c-4.173 19.677-8.417 40.142-27.174 54.45-2.547 9.47-3.805 13.817-7.497 24.862 20.455-17.192 34.077-23.083 44.857-59.942l1.575-5.288h34.967l-5.809 19.36c-2.005 8.806-12.528 18.491-12.528 18.491l8.294 12.324c5.87-4.122 42.28-25.895 42.28-25.895l5.39-19.871zM451.996 148.235l-26.908 89.775h15.995l33.77-112.643c8.98-9.992 21.488-25.098 28.309-34.885h-16.016c-19.289 23.605-38.097 42.423-57.395 59.277l-7.22 23.615c0 .194-.02.409-.01.603 3.539-2.935 9.552-8.12 15.791-13.428 6.433-5.86 10.994-9.951 13.684-12.314z"></path><path d="M585.537 132.436c5.318-4.541 12.661-10.657 16.773-15.873-3.713 23.461-3.723 44.591-.031 63.348-11.178 12.927-13.49 17.11-41.073 35.887-2.792 9.409-3.845 12.027-7.824 23.983 24.76-18.194 42.147-32.86 52.159-44.018 6.556 15.852 21.539 32.001 31.827 44.325 3.457-8.969 3.866-9.961 7.149-18.839-13.756-14.083-23.288-32.236-25.251-41.339 17.826-21.692 34.895-53.09 51.208-94.163h13.981l4.469-14.973h-53.906c8.918-12.211 16.588-27.132 21.609-38.136h-15.566c-17.816 32.84-25.527 47.23-47.761 73.248-2.363 8.468-4.285 15.28-7.763 26.55zm37.218-44.03c.818-.593 2.792-2.659 2.792-2.659h28.964c-12.007 31.122-24.659 56.639-37.964 76.572-2.864-19.37-.777-43.998 6.208-73.913zM759.998 200.245c9.45 8.202 17.264 16.077 23.451 23.706l16.312-6.985c-7.22-8.407-15.208-16.629-24.003-24.719l-15.76 7.998z"></path><path d="M859.397 162.956l-3.692 12.314H731.873l-3.959 13.192h123.832l-6.862 22.889c-1.278 6.443-6.883 9.675-16.885 9.675-3.335 0-12.917.317-22.93-.338-1.78 6.853-4.357 15.014-4.357 15.014s12.825.297 24.791.297c20.649 0 32.911-7.65 36.818-22.868l7.394-24.668h38.966l3.948-13.193h-38.945l3.692-12.314h-17.979zM735.739 105.735h22.97l4.49-14.952h-22.96l17.305-58.347h-17.99l-17.305 58.347h-23.962l-4.49 14.952h23.962l-39.835 132.903h17.98z"></path><path d="M938.556 68.783l4.234-14.093h-26.455l5.279-17.398h-15.965l-5.278 17.398h-34.48l6.791-22.255h-16.967l-6.791 22.255H774.02l-4.234 14.093h74.894l-4.203 14.062h-62.918l-24.188 80.632h16.998l3.845-12.856h45.941l-3.651 12.61h16.967l3.641-12.61h44.959l-3.733 12.631h16.987l24.044-80.407h-61.936l4.234-14.062h76.889zm-114.443 68.646h-45.941l4.224-14.093h45.931l-4.214 14.093zm8.172-27.287h-45.931l4.224-14.093h45.941l-4.234 14.093zm53.734 27.287H841.08l4.224-14.093h44.949l-4.234 14.093zm12.405-41.38l-4.214 14.093h-44.959l4.234-14.093h44.939zM476.09 269.422l.133-.215-7.333.103-13.061 21.068-10.667 16.885-1.81-38.056-8.09.103-12.385 20.792-10.319 16.977-1.442-37.872-8.468.215h-.287l2.342 51.188 7.671-.103 12.262-20.71 10.248-16.926 1.8 37.739h8.161l20.526-33.628 10.852-17.56zM509.688 267.784c-7.599 0-14.737 2.547-21.242 7.558-6.494 5.001-11.005 11.649-13.398 19.78-2.352 7.977-1.81 14.523 1.595 19.452 3.406 4.94 9.112 7.445 16.947 7.445 5.952 0 11.608-1.452 16.824-4.316 4.561-2.495 8.172-5.625 10.79-9.46.368-.511.788-1.002 1.125-1.524l-.082-.02c.041-.072.092-.133.133-.194l-8.039-1.432c-4.398 5.952-9.552 8.376-17.785 8.376-3.938 0-7.364-1.34-10.156-3.978-2.455-2.342-3.59-5.584-1.36-13.653l41.727-.153c2.618-9.194 2.301-16.22-.9-20.864-3.211-4.644-8.662-7.017-16.179-7.017zm8.898 21.713l-23.216.205h-7.967c1.841-4.858 4.469-7.486 8.12-10.115 3.866-2.792 8.028-4.203 12.355-4.203 3.211 0 5.778.767 7.589 2.281 4.234 4.58 3.692 9.04 3.119 11.832zM547.45 269.366l-11.577 39.968-3.252 11.056h.051l-.051.214h9.041l11.628-40.152 3.252-11.035h-.061l.061-.215zM562.102 251.505h-.061l.061-.215-9.757.154-2.465 8.826-.695 2.331h.061l-.061.205h9.726l2.475-8.959zM600.415 267.783c-5.697 0-11.086 2.219-15.914 6.505a39.406 39.406 0 00-3.569 3.324l5.819-20.455 1.677-5.656h-.061l.061-.205-9.092.153-15.699 53.949-4.418 14.993h.051l-.051.215 6.975-.143 1.575-4.786 1.299-3.457c2.291 6.484 7.343 9.798 15.085 9.798 7.006 0 13.531-2.608 19.411-7.752 5.881-5.144 9.992-11.588 12.222-19.176 2.598-8.816 2.352-15.648-.736-20.281-3.098-4.654-8.018-7.026-14.635-7.026zm5.441 27.828c-1.78 5.87-4.592 10.565-8.345 13.94-3.753 3.365-7.926 5.073-12.385 5.073-3.488 0-6.484-1.135-8.928-3.395-2.424-2.24-3.099-5.911-1.994-10.902l3.365-11.137c1.8-4.101 4.613-7.466 8.345-10.023 3.733-2.577 7.486-3.876 11.178-3.876 4.715 0 7.762 1.759 9.307 5.359 1.554 3.609 1.37 8.63-.543 14.961zM658.309 267.789c-7.364 0-14.349 2.465-20.72 7.323-6.372 4.858-10.82 11.424-13.224 19.555-2.271 7.711-1.964 14.247.92 19.462 2.915 5.236 8.376 7.885 16.261 7.885 7.783 0 14.973-2.557 21.375-7.589 6.402-5.052 10.831-11.649 13.173-19.595 2.26-7.65 1.851-14.134-1.207-19.278-3.068-5.145-8.642-7.763-16.578-7.763zm7.66 26.867c-2.045 6.607-5.114 11.547-9.092 14.666-3.989 3.119-8.264 4.705-12.723 4.705-4.388 0-7.66-1.493-9.736-4.449-2.066-2.956-2.035-7.947.112-14.85 2.025-6.556 5.052-11.393 9.01-14.4 3.937-3.017 8.151-4.541 12.498-4.541 4.203 0 7.456 1.493 9.685 4.449 2.21 2.935 2.302 7.782.246 14.42zM684.134 309.022l-2.445 9.031-.685 2.332h.061l-.061.225h12.835l2.486-9.174.695-2.353h-.061l.061-.214zM745.972 267.787c-7.517 0-14.318 2.608-20.199 7.752-5.881 5.134-10.023 11.669-12.314 19.432-2.209 7.486-1.994 13.93.624 19.156 2.628 5.236 7.987 7.895 15.914 7.895 5.83 0 11.24-1.626 16.067-4.837 4.316-2.833 7.793-6.76 10.381-11.761.297-.552.644-1.053.931-1.636l-.072-.01c.031-.061.082-.123.102-.194l-7.885-1.156c-4.326 8.243-9.593 11.925-17.059 11.925-4.643 0-7.752-1.79-9.245-5.308-1.698-3.907-1.657-8.345.112-14.39 1.616-5.461 3.498-9.89 7.415-13.827 3.764-3.733 7.742-5.482 12.518-5.482 4.019 0 6.975 1.033 8.775 3.048 1.708 1.902 2.332 4.766 2.209 8.601-.01.051 0 .123-.01.194l.02-.01c0 .082.031.133.02.215l8.622-1.544c.644-5.267-.45-9.655-3.252-13.009-2.812-3.356-7.414-5.054-13.674-5.054zM909.104 270.818c-2.373-2.015-5.564-3.027-9.481-3.027-6.556 0-12.539 2.812-17.755 8.192-1.258 1.227-2.506 2.495-3.692 4.019.102-3.314-.91-6.188-3.037-8.55-2.199-2.434-5.42-3.661-9.573-3.661-5.952 0-11.618 2.485-16.752 7.292-1.309 1.156-2.598 2.393-3.866 3.825l2.005-7.486.583-2.005h-.051l.051-.215-7.834.164-11.577 39.968-3.263 11.056h.061l-.061.215 8.693-.164 9-30.487c1.268-4.336 3.62-6.372 7.353-9.317 3.58-2.864 7.282-4.295 10.994-4.295 2.577 0 4.797.91 6.576 2.7 1.728 1.728 2.097 3.16.757 7.722l-7.558 26.407-2.138 7.22h.051l-.051.215 8.806-.164 8.468-28.698c1.606-5.441 4.295-8.161 8.397-11.035 3.907-2.731 7.578-4.111 10.912-4.111 2.393 0 4.377.665 5.881 1.984 1.524 1.33 2.291 2.751 2.322 4.326.01 1.176-.225 1.933-.747 3.59l-.655 2.138-7.139 24.944-2.015 6.811h.061l-.061.215h8.816l9.399-31.858c1.401-4.776 2.015-8.356 1.902-10.943-.131-2.62-1.409-4.962-3.782-6.987zM801.33 267.789c-7.374 0-14.349 2.465-20.731 7.323-6.361 4.858-10.82 11.424-13.224 19.555-2.27 7.711-1.964 14.247.92 19.463 2.915 5.236 8.376 7.885 16.261 7.885 7.783 0 14.973-2.557 21.385-7.589 6.392-5.052 10.82-11.649 13.173-19.595 2.26-7.65 1.851-14.134-1.207-19.278-3.077-5.146-8.651-7.764-16.577-7.764zm7.65 26.867c-2.045 6.607-5.103 11.547-9.092 14.666-3.989 3.119-8.274 4.705-12.723 4.705-4.388 0-7.66-1.493-9.736-4.449-2.066-2.956-2.025-7.947.112-14.85 2.035-6.556 5.062-11.393 9.01-14.4 3.937-3.017 8.151-4.541 12.498-4.541 4.203 0 7.466 1.493 9.685 4.449 2.21 2.935 2.302 7.782.246 14.42z"></path></g><g><path d="M29.136 219.44c0 45.849 59.707 83.045 133.364 83.045 73.657 0 133.363-37.197 133.363-83.045 0-45.859-59.707-83.045-133.364-83.045-73.656 0-133.363 37.186-133.363 83.045" fill="tranparent"></path><path d="M165.616 295.712c-65.199 6.433-121.469-23.032-125.714-65.833-4.234-42.791 45.204-82.708 110.383-89.151 65.209-6.453 121.469 23.011 125.714 65.802 4.213 42.812-45.195 82.729-110.383 89.182m130.387-142.077c-5.553-1.657-9.358-2.782-6.443-10.084 6.29-15.811 6.934-29.465.123-39.191-12.794-18.276-47.772-17.284-87.862-.501 0-.01-12.59 5.512-9.368-4.469 6.177-19.831 5.236-36.44-4.357-46.023-21.743-21.764-79.599.818-129.201 50.4C21.75 140.933.18 180.308.18 214.344c0 65.117 83.516 104.707 165.211 104.707 107.1 0 178.343-62.213 178.343-111.62 0-29.854-25.139-46.79-47.731-53.796" fill="#FFFFFF"></path><path d="M367.124 34.465c-25.865-28.677-64.023-39.61-99.235-32.124h-.01c-8.141 1.749-13.336 9.757-11.598 17.888 1.728 8.151 9.747 13.357 17.898 11.608 25.057-5.318 52.159 2.465 70.558 22.827 18.348 20.373 23.349 48.16 15.484 72.511v.01c-2.567 7.926 1.769 16.415 9.716 18.982 7.916 2.557 16.425-1.78 18.992-9.695v-.051c11.045-34.262 4.05-73.31-21.805-101.956" fill="#FFFFFF"></path><path d="M327.396 70.305c-12.59-13.96-31.162-19.268-48.324-15.617-7.016 1.493-11.495 8.397-9.972 15.412 1.483 6.985 8.386 11.485 15.372 9.961v.02c8.407-1.78 17.489.808 23.645 7.609 6.167 6.832 7.814 16.139 5.165 24.3h.02c-2.199 6.811 1.534 14.144 8.345 16.353 6.832 2.178 14.144-1.544 16.343-8.366 5.392-16.689 2.017-35.711-10.594-49.672" fill="#FFFFFF"></path><path d="M169.206 218.197c-2.27 3.897-7.312 5.768-11.27 4.142-3.886-1.595-5.103-5.942-2.884-9.788 2.27-3.805 7.108-5.666 10.984-4.122 3.937 1.433 5.349 5.841 3.17 9.768m-20.761 26.672c-6.32 10.043-19.82 14.451-29.986 9.818-10.023-4.561-12.978-16.251-6.678-26.059 6.218-9.777 19.278-14.124 29.373-9.89 10.216 4.358 13.468 15.955 7.291 26.131m23.676-71.202c-31.019-8.08-66.089 7.384-79.558 34.732-13.725 27.869-.45 58.817 30.897 68.942 32.451 10.462 70.722-5.584 84.037-35.663 13.112-29.423-3.273-59.716-35.376-68.011" fill="#FFFFFF"></path></g></g></svg>